<svg width="172" height="35" viewBox="0 0 172 35" fill="none" xmlns="http://www.w3.org/2000/svg">
<path d="M4.5729 34.2717C2.03519 34.2717 0 32.2114 0 29.6988V4.57291C0 2.0352 2.06032 0 4.5729 0C7.11062 0 9.14581 2.06032 9.14581 4.57291V29.6988C9.17094 32.2365 7.11062 34.2717 4.5729 34.2717Z" fill="white" fill-opacity="0.7"/>
<path d="M23.1158 34.2717C20.5781 34.2717 18.5429 32.2114 18.5429 29.6988V4.57291C18.5429 2.0352 20.6032 0 23.1158 0C25.6535 0 27.6887 2.06032 27.6887 4.57291V29.6988C27.6887 32.2365 25.6284 34.2717 23.1158 34.2717Z" fill="white"/>
<path d="M13.7438 12.186H27.7138C30.2264 12.186 32.2867 14.2212 32.2867 16.7589C32.2867 19.2967 30.2515 21.3319 27.7138 21.3319H13.7438C11.2061 21.3319 9.17094 23.3922 9.17094 25.955V29.749C9.17094 32.2616 7.08549 34.3219 4.5729 34.3219C2.06032 34.3219 0 32.2867 0 29.749V25.9299C0 18.367 6.15583 12.186 13.7438 12.186Z" fill="white"/>
<path d="M65.5534 25.4524H61.1564V16.9096H51.4578V25.4524H47.0859V5.10046H51.4578V13.0905H61.1564V5.10046H65.5534V25.4524Z" fill="white"/>
<path d="M86.2822 25.4524H81.2571L77.2118 18.2162H73.9957V25.4524H69.6238V5.10046H79.247C81.3576 5.10046 83.041 5.7035 84.2722 6.93466C85.5033 8.16583 86.1315 9.72363 86.1315 11.6583C86.1315 13.3166 85.7043 14.6734 84.8249 15.7036C83.9455 16.7337 82.8902 17.4121 81.6339 17.6885L86.2822 25.4524ZM78.6188 14.4222C79.5234 14.4222 80.252 14.1709 80.8299 13.6684C81.4078 13.1659 81.6842 12.5126 81.6842 11.6583C81.6842 10.8292 81.4078 10.1508 80.8299 9.64826C80.252 9.14574 79.5234 8.89448 78.6188 8.89448H74.0208V14.3719H78.6188V14.4222Z" fill="white"/>
<path d="M106.911 25.4524H104.951L100.026 7.96482L95.1014 25.4524H93.1416L87.2621 5.10046H89.222L94.1718 23.0152L99.2221 5.10046H100.83L105.855 23.0152L110.805 5.10046H112.765L106.911 25.4524Z" fill="white"/>
<path d="M124.499 25.8294C121.509 25.8294 119.122 24.8244 117.262 22.8394C115.428 20.8545 114.499 18.3419 114.499 15.3017C114.499 12.2614 115.428 9.77398 117.262 7.76391C119.097 5.77897 121.509 4.77393 124.499 4.77393C127.464 4.77393 129.851 5.77897 131.71 7.76391C133.569 9.74885 134.474 12.2614 134.474 15.3017C134.474 18.3419 133.544 20.8545 131.71 22.8394C129.851 24.8244 127.464 25.8294 124.499 25.8294ZM124.499 24.2465C126.911 24.2465 128.871 23.4173 130.378 21.7339C131.886 20.0505 132.639 17.9148 132.639 15.3017C132.639 12.6886 131.886 10.5277 130.403 8.86944C128.921 7.21113 126.936 6.35685 124.499 6.35685C122.036 6.35685 120.051 7.18601 118.594 8.86944C117.112 10.5277 116.383 12.6886 116.383 15.3017C116.383 17.9148 117.112 20.0505 118.594 21.7339C120.051 23.3922 122.036 24.2465 124.499 24.2465Z" fill="white"/>
<path d="M152.941 25.4524H150.806L145.052 17.0353H140.529V25.4524H138.77V5.10046H146.434C148.243 5.10046 149.725 5.62811 150.906 6.70853C152.087 7.78894 152.665 9.22112 152.665 11.0302C152.665 12.789 152.112 14.196 151.007 15.2513C149.901 16.2815 148.569 16.8342 146.961 16.9096L152.941 25.4524ZM146.283 15.4523C147.64 15.4523 148.745 15.0503 149.574 14.2212C150.429 13.392 150.831 12.3367 150.831 11.0553C150.831 9.77388 150.403 8.71859 149.574 7.91456C148.72 7.11054 147.64 6.68341 146.283 6.68341H140.529V15.4272H146.283V15.4523Z" fill="white"/>
<path d="M171.76 25.4524H169.499L161.032 15.8795L158.745 18.3418V25.4524H156.986V5.10046H158.745V16.2312L168.67 5.10046H170.931L162.187 14.7991L171.76 25.4524Z" fill="white"/>
</svg>
