<svg width="217" height="44" viewBox="0 0 217 44" fill="none" xmlns="http://www.w3.org/2000/svg">
<path d="M5.77202 43.2585C2.56886 43.2585 0 40.6579 0 37.4865V5.77203C0 2.56887 2.60058 0 5.77202 0C8.97518 0 11.5441 2.60059 11.5441 5.77203V37.4865C11.5758 40.6896 8.97518 43.2585 5.77202 43.2585Z" fill="#F99BAD"/>
<path d="M29.1773 43.2585C25.9741 43.2585 23.4053 40.6579 23.4053 37.4865V5.77203C23.4053 2.56887 26.0059 0 29.1773 0C32.3805 0 34.9493 2.60059 34.9493 5.77203V37.4865C34.9493 40.6896 32.3488 43.2585 29.1773 43.2585Z" fill="#EF0633"/>
<path d="M17.3478 15.3816H34.981C38.1525 15.3816 40.7531 17.9505 40.7531 21.1536C40.7531 24.3568 38.1842 26.9257 34.981 26.9257H17.3478C14.1446 26.9257 11.5758 29.5262 11.5758 32.7611V37.55C11.5758 40.7214 8.94347 43.322 5.77202 43.322C2.60058 43.322 0 40.7532 0 37.55V32.7294C0 23.1833 7.77003 15.3816 17.3478 15.3816Z" fill="#B30526"/>
<path d="M82.743 32.1267H77.193V21.3438H64.9512V32.1267H59.4329V6.43799H64.9512V16.5232H77.193V6.43799H82.743V32.1267Z" fill="white"/>
<path d="M108.907 32.1267H102.565L97.4585 22.9929H93.3991V32.1267H87.8807V6.43799H100.027C102.691 6.43799 104.816 7.19915 106.37 8.75316C107.924 10.3072 108.717 12.2735 108.717 14.7155C108.717 16.8086 108.178 18.5212 107.068 19.8215C105.958 21.1218 104.626 21.9781 103.04 22.3269L108.907 32.1267ZM99.2345 18.2041C100.376 18.2041 101.296 17.8869 102.025 17.2526C102.755 16.6183 103.104 15.7938 103.104 14.7155C103.104 13.6689 102.755 12.8126 102.025 12.1783C101.296 11.544 100.376 11.2269 99.2345 11.2269H93.4308V18.1406H99.2345V18.2041Z" fill="white"/>
<path d="M134.945 32.1267H132.471L126.255 10.0534L120.039 32.1267H117.565L110.144 6.43799H112.618L118.866 29.0504L125.24 6.43799H127.27L133.613 29.0504L139.861 6.43799H142.334L134.945 32.1267Z" fill="white"/>
<path d="M157.145 32.6023C153.371 32.6023 150.358 31.3338 148.011 28.8283C145.696 26.3229 144.523 23.1514 144.523 19.314C144.523 15.4765 145.696 12.3368 148.011 9.79966C150.327 7.29422 153.371 6.02563 157.145 6.02563C160.887 6.02563 163.9 7.29422 166.247 9.79966C168.594 12.3051 169.736 15.4765 169.736 19.314C169.736 23.1514 168.562 26.3229 166.247 28.8283C163.9 31.3338 160.887 32.6023 157.145 32.6023ZM157.145 30.6043C160.19 30.6043 162.663 29.5578 164.566 27.4329C166.469 25.308 167.421 22.6123 167.421 19.314C167.421 16.0157 166.469 13.2882 164.598 11.1951C162.727 9.10193 160.221 8.02364 157.145 8.02364C154.037 8.02364 151.532 9.07022 149.692 11.1951C147.821 13.2882 146.901 16.0157 146.901 19.314C146.901 22.6123 147.821 25.308 149.692 27.4329C151.532 29.526 154.037 30.6043 157.145 30.6043Z" fill="white"/>
<path d="M193.046 32.1267H190.35L183.087 21.5024H177.379V32.1267H175.159V6.43799H184.832C187.115 6.43799 188.986 7.104 190.477 8.46772C191.968 9.83144 192.697 11.6392 192.697 13.9226C192.697 16.1426 191.999 17.9186 190.604 19.2506C189.208 20.5509 187.528 21.2486 185.498 21.3438L193.046 32.1267ZM184.642 19.5043C186.354 19.5043 187.75 18.9969 188.796 17.9503C189.874 16.9038 190.382 15.5718 190.382 13.9543C190.382 12.3369 189.843 11.0049 188.796 9.99001C187.718 8.97515 186.354 8.43601 184.642 8.43601H177.379V19.4726H184.642V19.5043Z" fill="white"/>
<path d="M216.8 32.1267H213.946L203.258 20.0435L200.372 23.1515V32.1267H198.152V6.43799H200.372V20.4875L212.899 6.43799H215.753L204.717 18.6798L216.8 32.1267Z" fill="white"/>
</svg>
